<svg>
    <symbol fill="none" xmlns="http://www.w3.org/2000/svg" viewBox="0 0 200 36" id="logo">
        <path d="M0 35.325V0H15.089C17.7982 0 20.0657 0.373718 21.8914 1.12115C23.729 1.86859 25.1071 2.915 26.0259 4.26039C26.9564 5.60577 27.4217 7.16389 27.4217 8.93474C27.4217 10.2801 27.1331 11.4818 26.5559 12.5397C25.9788 13.5861 25.1837 14.4543 24.1707 15.1442C23.1577 15.8342 21.9857 16.3171 20.6546 16.5931V16.9381C22.1152 17.0071 23.4639 17.3923 24.7007 18.0937C25.9493 18.7952 26.9505 19.7726 27.7044 21.026C28.4583 22.2679 28.8352 23.7397 28.8352 25.4416C28.8352 27.3389 28.3405 29.035 27.351 30.5299C26.3616 32.0133 24.9304 33.1862 23.0576 34.0486C21.1847 34.8995 18.9113 35.325 16.2375 35.325H0ZM8.74597 28.4428H14.1526C16.049 28.4428 17.4448 28.0921 18.34 27.3907C19.247 26.6892 19.7005 25.7118 19.7005 24.4584C19.7005 23.55 19.4826 22.7681 19.0468 22.1126C18.611 21.4457 17.9926 20.934 17.1916 20.5775C16.3906 20.2095 15.4306 20.0255 14.3116 20.0255H8.74597V28.4428ZM8.74597 14.5233H13.5872C14.5413 14.5233 15.3894 14.368 16.1315 14.0576C16.8735 13.7471 17.4507 13.2986 17.863 12.7122C18.287 12.1257 18.4991 11.4185 18.4991 10.5906C18.4991 9.4062 18.0691 8.47478 17.2092 7.79634C16.3494 7.1179 15.1891 6.77868 13.7285 6.77868H8.74597V14.5233Z" fill="currentColor"/>
        <path d="M31.2381 0H41.0089L48.6594 14.782H48.9774L56.6279 0H66.3987L53.1649 23.527V35.325H44.4719V23.527L31.2381 0Z" fill="currentColor"/>
        <path d="M71.1648 6.93391V0H101.749V6.93391H90.777V35.325H82.1547V6.93391H71.1648Z" fill="currentColor"/>
        <path d="M106.021 35.325V0H131.251V6.93391H114.767V14.1783H129.962V21.1295H114.767V28.3911H131.251V35.325H106.021Z" fill="currentColor"/>
        <path d="M136.729 35.325V0H161.959V6.93391H145.475V14.1783H160.67V21.1295H145.475V28.3911H161.959V35.325H136.729Z" fill="currentColor"/>
        <path d="M176.289 0L182.897 11.1598H183.179L183.462 10.6872L176.289 0Z" fill="currentColor"/>
        <path fill-rule="evenodd" clip-rule="evenodd" d="M182.897 11.1598L176.289 0H166.43L177.367 17.6625L166.147 35.325H176.112L182.897 24.0445H183.179L189.964 35.325H200L183.462 10.6872L183.179 11.1598H182.897Z" fill="currentColor"/>
        <path d="M191.176 0H200V8.83125H191.176V0Z" fill="currentColor"/>
    </symbol>
    <symbol viewBox="0 0 42 42" fill="none" xmlns="http://www.w3.org/2000/svg" id="day-night"> 
        <path d="M21 8V34" stroke="#15005B" stroke-width="1.6" stroke-miterlimit="10" stroke-linecap="round" stroke-linejoin="round"/>
        <path d="M20.9998 27.9998C17.1298 27.9998 13.9998 24.8698 13.9998 20.9998C13.9998 17.1298 17.1298 13.9998 20.9998 13.9998" stroke="#15005B" stroke-width="1.6" stroke-miterlimit="10" stroke-linecap="round" stroke-linejoin="round"/>
        <path d="M11.8098 11.8105L13.9298 13.9305" stroke="#15005B" stroke-width="1.6" stroke-miterlimit="10" stroke-linecap="round" stroke-linejoin="round"/>
        <path d="M8 21H11" stroke="#15005B" stroke-width="1.6" stroke-miterlimit="10" stroke-linecap="round" stroke-linejoin="round"/>
        <path d="M11.8098 30.1901L13.9298 28.0701" stroke="#15005B" stroke-width="1.6" stroke-miterlimit="10" stroke-linecap="round" stroke-linejoin="round"/>
        <path d="M21 17.5498C22.2 15.4298 24.48 13.9998 27.09 13.9998C27.25 13.9998 27.4 14.0098 27.56 14.0198C25.89 14.8998 24.76 16.6498 24.76 18.6598C24.76 21.5598 27.11 23.9098 30.01 23.9098C31.61 23.9098 33.04 23.1898 34 22.0598C33.48 25.4298 30.59 27.9998 27.09 27.9998C24.48 27.9998 22.2 26.5698 21 24.4498" stroke="#15005B" stroke-width="1.6" stroke-miterlimit="10" stroke-linecap="round" stroke-linejoin="round"/>
    </symbol>
    <symbol viewBox="0 0 42 42" fill="none" xmlns="http://www.w3.org/2000/svg" id="waste">
        <path d="M15.3737 15.2289C15.3737 14.9156 15.6351 14.6617 15.9577 14.6617H29.6101C29.7803 14.6617 29.9421 14.7339 30.053 14.8593C30.164 14.9847 30.213 15.1509 30.1874 15.3144L29.6041 19.0303C29.56 19.311 29.3111 19.5121 29.0275 19.5121C28.9982 19.5121 28.9686 19.5101 28.9387 19.5056C28.6199 19.4584 28.4008 19.169 28.4494 18.8593L28.9302 15.7961H15.9577C15.6351 15.7961 15.3737 15.5421 15.3737 15.2289ZM19.8073 24.8992H14.6319L12.4742 12.665C12.4262 12.3927 12.1831 12.1936 11.8986 12.1936H8.71313C8.39058 12.1936 8.12915 12.4475 8.12915 12.7608C8.12915 13.0741 8.39058 13.3281 8.71313 13.3281H11.4062L13.5639 25.5622C13.6126 25.8386 13.8595 26.0338 14.1388 26.0338C14.1715 26.0337 14.2048 26.0311 14.2381 26.0255C14.2404 26.0251 14.2427 26.0247 14.245 26.0242C14.2794 26.0304 14.3149 26.0336 14.3511 26.0336H19.8073C20.1299 26.0336 20.3913 25.7796 20.3913 25.4663C20.3913 25.153 20.1299 24.8992 19.8073 24.8992ZM18.6785 28.9133V29.9199C18.6785 30.866 17.8861 31.6358 16.912 31.6358C15.9379 31.6358 15.1455 30.866 15.1455 29.9199V28.9133C15.1455 27.9671 15.9379 27.1974 16.9119 27.1974C17.886 27.1974 18.6785 27.9671 18.6785 28.9133ZM17.5106 28.9133C17.5106 28.5926 17.2421 28.3318 16.912 28.3318H16.9119C16.5819 28.3318 16.3134 28.5926 16.3134 28.9133V29.9199C16.3134 30.2404 16.5819 30.5013 16.9119 30.5013C17.242 30.5013 17.5106 30.2404 17.5106 29.9199V28.9133ZM33.7904 23.6227C33.4457 26.3118 32.0437 28.7096 29.8423 30.3744C27.9897 31.7754 25.7576 32.5162 23.4468 32.5162C23.0117 32.5162 22.574 32.4899 22.1354 32.4368C21.7685 32.3924 21.3986 32.328 21.0357 32.2457C20.7922 32.1904 20.6119 31.9906 20.5874 31.7488C20.5117 31.0003 20.5219 30.2409 20.6179 29.4918C21.3295 23.9405 26.5581 19.986 32.2731 20.6774C32.6404 20.7219 33.0102 20.7863 33.3727 20.8686C33.6161 20.9239 33.7963 21.1236 33.8209 21.3652C33.8968 22.1134 33.8866 22.8729 33.7904 23.6227ZM32.6905 21.8884C32.5035 21.8545 32.3156 21.826 32.1286 21.8033C27.0531 21.1897 22.4089 24.7014 21.7769 29.632C21.7408 29.9132 21.7184 30.196 21.7095 30.479L27.052 25.9325C27.2945 25.7261 27.6635 25.7496 27.876 25.9854C28.0885 26.2209 28.0642 26.5794 27.8216 26.7858L22.4782 31.333C24.869 31.5727 27.2221 30.918 29.1246 29.4792C31.0799 28.0006 32.3252 25.8708 32.6312 23.4824C32.6993 22.9532 32.719 22.4187 32.6905 21.8884Z" fill="#01005B" stroke="#01005B" stroke-width="0.3"/>
    </symbol>

    <symbol id="comfort" viewBox="0 0 42 42" fill="none" xmlns="http://www.w3.org/2000/svg" >
        <path d="M12.009 16.5696C14.1442 14.7453 15.8308 13.3029 20.4079 15.8763C22.6066 17.112 24.38 17.579 25.8552 17.5766C28.4402 17.5766 30.1158 16.1463 31.5641 14.9095C31.8127 14.6943 31.9673 14.3912 31.9951 14.0645C32.0229 13.7378 31.9218 13.4131 31.7132 13.1594C31.6114 13.0348 31.4856 12.9319 31.3431 12.8566C31.2007 12.7813 31.0445 12.7352 30.8838 12.721C30.7231 12.7068 30.5613 12.7249 30.4077 12.7741C30.2542 12.8232 30.1121 12.9026 29.9899 13.0073C27.856 14.8341 26.1681 16.2765 21.591 13.7006C15.5436 10.3037 12.7106 12.724 10.4348 14.6699C10.1864 14.8852 10.0321 15.1884 10.0045 15.5151C9.97685 15.8418 10.0782 16.1663 10.287 16.42C10.3888 16.5443 10.5147 16.647 10.6571 16.7221C10.7995 16.7971 10.9557 16.843 11.1162 16.8569C11.2768 16.8709 11.4385 16.8526 11.5919 16.8033C11.7452 16.7539 11.8871 16.6744 12.009 16.5696V16.5696ZM29.9899 19.2184C27.856 21.0427 26.1681 22.4876 21.591 19.9117C15.5436 16.5124 12.7106 18.9338 10.4348 20.8785C10.1864 21.0939 10.0321 21.3971 10.0045 21.7238C9.97685 22.0505 10.0782 22.375 10.287 22.6286C10.3886 22.7531 10.5143 22.8561 10.6567 22.9313C10.799 23.0066 10.9551 23.0527 11.1157 23.0669C11.2763 23.0811 11.4381 23.063 11.5915 23.0139C11.745 22.9647 11.8869 22.8854 12.009 22.7807C14.1442 20.9552 15.8308 19.5128 20.4079 22.085C22.6066 23.3231 24.38 23.7877 25.8552 23.7877C28.4402 23.7877 30.1158 22.3574 31.5641 21.1181C31.8129 20.9033 31.9676 20.6004 31.9955 20.2738C32.0233 19.9472 31.922 19.6227 31.7132 19.3692C31.6114 19.2447 31.4856 19.1417 31.3431 19.0664C31.2006 18.9911 31.0443 18.9451 30.8836 18.931C30.7229 18.917 30.561 18.9352 30.4075 18.9845C30.2539 19.0339 30.1119 19.1134 29.9899 19.2184V19.2184ZM29.9899 25.4283C27.856 27.255 26.1681 28.6975 21.591 26.124C15.5436 22.7247 12.7106 25.145 10.4348 27.0909C10.1864 27.3062 10.0321 27.6094 10.0045 27.9361C9.97685 28.2628 10.0782 28.5873 10.287 28.841C10.3887 28.9654 10.5145 29.0683 10.657 29.1434C10.7994 29.2186 10.9556 29.2645 11.1162 29.2784C11.2768 29.2924 11.4386 29.2741 11.592 29.2247C11.7453 29.1752 11.8872 29.0956 12.009 28.9906C14.1442 27.1663 15.8308 25.7251 20.4079 28.2973C22.6066 29.533 24.38 30 25.8552 30C28.4402 30 30.1158 28.5673 31.5641 27.3305C31.8127 27.1153 31.9673 26.8122 31.9951 26.4855C32.0229 26.1588 31.9218 25.8341 31.7132 25.5803C31.6113 25.456 31.4854 25.3531 31.343 25.2779C31.2005 25.2028 31.0444 25.1567 30.8838 25.1425C30.7232 25.1284 30.5613 25.1464 30.4078 25.1954C30.2543 25.2445 30.1122 25.3237 29.9899 25.4283V25.4283Z" fill="#01005B"/>

    </symbol>
    
    <symbol viewBox="0 0 24 10" xmlns="http://www.w3.org/2000/svg" id="arrow-right" fill="white"    preserveAspectRatio='none'>
        <path d="M18.1072 10L23 5.00003L18.1072 0L16.6372 1.5022L19.0205 3.93781H0V6.06226H19.0205L16.6372 8.4978L18.1072 10Z" strike="white"/>
    </symbol>
    <symbol viewBox="0 0 11 10" fill="none" xmlns="http://www.w3.org/2000/svg" id="star">
        <path d="M10.9857 3.6786C10.9686 3.62578 10.9371 3.57881 10.8946 3.54301C10.8522 3.50722 10.8006 3.48403 10.7456 3.47609L7.59968 3.01897L6.19242 0.165568C6.16782 0.115857 6.12981 0.0740131 6.08268 0.0447576C6.03556 0.0155021 5.9812 0 5.92574 0C5.87028 0 5.81592 0.0155021 5.76879 0.0447576C5.72167 0.0740131 5.68366 0.115857 5.65906 0.165568L4.2518 3.01682L1.10587 3.47394C1.05103 3.482 0.999527 3.50522 0.957172 3.54098C0.914818 3.57674 0.883293 3.62362 0.866151 3.67633C0.849008 3.72905 0.846929 3.7855 0.860149 3.83934C0.873368 3.89317 0.90136 3.94224 0.94097 3.98102L3.2173 6.20003L2.68017 9.33383C2.67118 9.38824 2.67748 9.44408 2.69838 9.49512C2.71927 9.54616 2.75394 9.59038 2.7985 9.62286C2.84307 9.65534 2.89579 9.6748 2.95077 9.67906C3.00575 9.68332 3.06083 9.67222 3.10987 9.64699L5.92601 8.16926L8.74 9.6486C8.78908 9.67388 8.84422 9.68499 8.89926 9.68072C8.9543 9.67644 9.00707 9.65694 9.05166 9.62438C9.09625 9.59183 9.1309 9.54751 9.15175 9.49639C9.17259 9.44527 9.17881 9.38935 9.16969 9.3349L8.63257 6.20111L10.9094 3.98209C10.9491 3.94362 10.9773 3.89482 10.9908 3.84121C11.0042 3.78759 11.0025 3.73127 10.9857 3.6786Z" fill="#FFB801"/>
    </symbol>
    <symbol viewBox="0 0 42 42" fill="none" xmlns="http://www.w3.org/2000/svg" id="leaf">
        <path d="M31.6772 29.8173C31.2798 29.4699 30.6744 29.5075 30.3243 29.9018C28.7161 31.7091 26.928 31.0519 26.0955 30.5778C27.8126 19.7576 23.9291 17.7438 18.5887 14.9742C16.3418 13.81 13.797 12.4863 11.2237 10.2377C10.973 10.0171 10.6277 9.94669 10.3108 10.0406C9.99388 10.1345 9.74791 10.3879 9.66277 10.7072C8.26735 15.9741 9.09041 21.0955 11.99 25.1231C14.8376 29.0803 19.3455 31.4979 24.6954 31.9532C25.4569 32.4836 26.6348 33 27.9403 33C29.1843 33 30.5419 32.5306 31.7623 31.1599C32.1076 30.7656 32.0745 30.1647 31.6772 29.8173ZM13.551 24.0153C11.2568 20.8326 10.4385 16.8566 11.1859 12.6787C13.4895 14.4766 15.708 15.6267 17.6994 16.6594C22.5715 19.1849 25.4096 20.6589 24.3974 28.8738L21.9235 25.8789L22.4438 22.8088C22.5289 22.2925 22.1789 21.7996 21.6539 21.7151C21.1335 21.6306 20.6369 21.978 20.5517 22.4943L20.3105 23.9261L16.9804 19.8937L15.1167 17.0866C14.8282 16.6453 14.2322 16.5233 13.7875 16.8143C13.3476 17.1007 13.2246 17.6921 13.5132 18.1287L15.4005 20.9781C15.4194 21.0063 15.4384 21.0344 15.462 21.0579L16.427 22.2268L15.7316 22.2362C15.2018 22.2455 14.7809 22.6774 14.7856 23.1985C14.795 23.7195 15.2208 24.1373 15.7458 24.1373C15.7505 24.1373 15.7553 24.1373 15.76 24.1373L17.9832 24.1045L22.6283 29.7328C18.8346 28.9348 15.6654 26.9538 13.551 24.0153Z" fill="#01005B"/>

    </symbol>
    <symbol viewBox="0 0 13 25" fill="none" xmlns="http://www.w3.org/2000/svg" id='arrow-slider'>
        <path d="M2 22.9255L12.465 12.4634L2 2.00006" stroke="#676869" stroke-width="2" stroke-linecap="square" stroke-linejoin="round"/>
    </symbol>
    <symbol viewBox="0 0 69 49" fill="none" xmlns="http://www.w3.org/2000/svg" id="shipping">
        <path d="M9 14.5H20.5M9 28.5H20.5M0 21.5H20.5" stroke="#01005B" stroke-width="2"/>
        <g clip-path="url(#clip0_1_1501)">
        <path d="M48.9586 35.1781H35.4695V33.1364H46.9169V9.20723H21.5417V33.1364H25.8055V35.1781H19.5V7.16553H48.9586V35.1781Z" fill="#01005B"/>
        <path d="M68.5001 35.1779H62.0421V33.1362H66.4584V23.8237L57.5241 13.7369H48.9587V33.1362H52.3801V35.1779H46.917V11.6953H58.4432L68.5001 23.0491V35.1779Z" fill="#01005B"/>
        <path d="M57.2728 41.8345C53.9131 41.8345 51.1807 39.1015 51.1807 35.7425C51.1807 32.3833 53.9132 29.6504 57.2728 29.6504C60.6323 29.6504 63.3658 32.3834 63.3658 35.7425C63.3659 39.1015 60.6324 41.8345 57.2728 41.8345ZM57.2728 31.692C55.0397 31.692 53.2223 33.5089 53.2223 35.7425C53.2223 37.9761 55.0397 39.7929 57.2728 39.7929C59.5068 39.7929 61.3242 37.9761 61.3242 35.7425C61.3242 33.5088 59.5068 31.692 57.2728 31.692Z" fill="#01005B"/>
        <path d="M30.7261 41.8345C27.3665 41.8345 24.634 39.1015 24.634 35.7425C24.634 32.3833 27.3666 29.6504 30.7261 29.6504C34.0856 29.6504 36.8181 32.3834 36.8181 35.7425C36.8181 39.1015 34.0857 41.8345 30.7261 41.8345ZM30.7261 31.692C28.493 31.692 26.6756 33.5089 26.6756 35.7425C26.6756 37.9761 28.493 39.7929 30.7261 39.7929C32.9591 39.7929 34.7764 37.9761 34.7764 35.7425C34.7765 33.5088 32.9592 31.692 30.7261 31.692Z" fill="#01005B"/>
        </g>
        <defs>
        <clipPath id="clip0_1_1501">
        <rect width="49" height="49" fill="white" transform="translate(19.5)"/>
        </clipPath>
        </defs>
    </symbol>
    <symbol>
    </symbol>
    <symbol>
    </symbol>
    <symbol>
    </symbol>
    <symbol>
    </symbol>
</svg>
