<svg>
    <symbol fill="none" xmlns="http://www.w3.org/2000/svg" viewBox="0 0 200 36" id="logo">
        <path d="M0 35.325V0H15.089C17.7982 0 20.0657 0.373718 21.8914 1.12115C23.729 1.86859 25.1071 2.915 26.0259 4.26039C26.9564 5.60577 27.4217 7.16389 27.4217 8.93474C27.4217 10.2801 27.1331 11.4818 26.5559 12.5397C25.9788 13.5861 25.1837 14.4543 24.1707 15.1442C23.1577 15.8342 21.9857 16.3171 20.6546 16.5931V16.9381C22.1152 17.0071 23.4639 17.3923 24.7007 18.0937C25.9493 18.7952 26.9505 19.7726 27.7044 21.026C28.4583 22.2679 28.8352 23.7397 28.8352 25.4416C28.8352 27.3389 28.3405 29.035 27.351 30.5299C26.3616 32.0133 24.9304 33.1862 23.0576 34.0486C21.1847 34.8995 18.9113 35.325 16.2375 35.325H0ZM8.74597 28.4428H14.1526C16.049 28.4428 17.4448 28.0921 18.34 27.3907C19.247 26.6892 19.7005 25.7118 19.7005 24.4584C19.7005 23.55 19.4826 22.7681 19.0468 22.1126C18.611 21.4457 17.9926 20.934 17.1916 20.5775C16.3906 20.2095 15.4306 20.0255 14.3116 20.0255H8.74597V28.4428ZM8.74597 14.5233H13.5872C14.5413 14.5233 15.3894 14.368 16.1315 14.0576C16.8735 13.7471 17.4507 13.2986 17.863 12.7122C18.287 12.1257 18.4991 11.4185 18.4991 10.5906C18.4991 9.4062 18.0691 8.47478 17.2092 7.79634C16.3494 7.1179 15.1891 6.77868 13.7285 6.77868H8.74597V14.5233Z" fill="currentColor"/>
        <path d="M31.2381 0H41.0089L48.6594 14.782H48.9774L56.6279 0H66.3987L53.1649 23.527V35.325H44.4719V23.527L31.2381 0Z" fill="currentColor"/>
        <path d="M71.1648 6.93391V0H101.749V6.93391H90.777V35.325H82.1547V6.93391H71.1648Z" fill="currentColor"/>
        <path d="M106.021 35.325V0H131.251V6.93391H114.767V14.1783H129.962V21.1295H114.767V28.3911H131.251V35.325H106.021Z" fill="currentColor"/>
        <path d="M136.729 35.325V0H161.959V6.93391H145.475V14.1783H160.67V21.1295H145.475V28.3911H161.959V35.325H136.729Z" fill="currentColor"/>
        <path d="M176.289 0L182.897 11.1598H183.179L183.462 10.6872L176.289 0Z" fill="currentColor"/>
        <path fill-rule="evenodd" clip-rule="evenodd" d="M182.897 11.1598L176.289 0H166.43L177.367 17.6625L166.147 35.325H176.112L182.897 24.0445H183.179L189.964 35.325H200L183.462 10.6872L183.179 11.1598H182.897Z" fill="currentColor"/>
        <path d="M191.176 0H200V8.83125H191.176V0Z" fill="currentColor"/>
    </symbol>
    <symbol viewBox="0 0 42 42" fill="none" xmlns="http://www.w3.org/2000/svg" id="day-night"> 
        <path d="M21 8V34" stroke="#15005B" stroke-width="1.6" stroke-miterlimit="10" stroke-linecap="round" stroke-linejoin="round"/>
        <path d="M20.9998 27.9998C17.1298 27.9998 13.9998 24.8698 13.9998 20.9998C13.9998 17.1298 17.1298 13.9998 20.9998 13.9998" stroke="#15005B" stroke-width="1.6" stroke-miterlimit="10" stroke-linecap="round" stroke-linejoin="round"/>
        <path d="M11.8098 11.8105L13.9298 13.9305" stroke="#15005B" stroke-width="1.6" stroke-miterlimit="10" stroke-linecap="round" stroke-linejoin="round"/>
        <path d="M8 21H11" stroke="#15005B" stroke-width="1.6" stroke-miterlimit="10" stroke-linecap="round" stroke-linejoin="round"/>
        <path d="M11.8098 30.1901L13.9298 28.0701" stroke="#15005B" stroke-width="1.6" stroke-miterlimit="10" stroke-linecap="round" stroke-linejoin="round"/>
        <path d="M21 17.5498C22.2 15.4298 24.48 13.9998 27.09 13.9998C27.25 13.9998 27.4 14.0098 27.56 14.0198C25.89 14.8998 24.76 16.6498 24.76 18.6598C24.76 21.5598 27.11 23.9098 30.01 23.9098C31.61 23.9098 33.04 23.1898 34 22.0598C33.48 25.4298 30.59 27.9998 27.09 27.9998C24.48 27.9998 22.2 26.5698 21 24.4498" stroke="#15005B" stroke-width="1.6" stroke-miterlimit="10" stroke-linecap="round" stroke-linejoin="round"/>
    </symbol>
    <symbol viewBox="0 0 42 42" fill="none" xmlns="http://www.w3.org/2000/svg" id="waste">
        <path d="M15.3737 15.2289C15.3737 14.9156 15.6351 14.6617 15.9577 14.6617H29.6101C29.7803 14.6617 29.9421 14.7339 30.053 14.8593C30.164 14.9847 30.213 15.1509 30.1874 15.3144L29.6041 19.0303C29.56 19.311 29.3111 19.5121 29.0275 19.5121C28.9982 19.5121 28.9686 19.5101 28.9387 19.5056C28.6199 19.4584 28.4008 19.169 28.4494 18.8593L28.9302 15.7961H15.9577C15.6351 15.7961 15.3737 15.5421 15.3737 15.2289ZM19.8073 24.8992H14.6319L12.4742 12.665C12.4262 12.3927 12.1831 12.1936 11.8986 12.1936H8.71313C8.39058 12.1936 8.12915 12.4475 8.12915 12.7608C8.12915 13.0741 8.39058 13.3281 8.71313 13.3281H11.4062L13.5639 25.5622C13.6126 25.8386 13.8595 26.0338 14.1388 26.0338C14.1715 26.0337 14.2048 26.0311 14.2381 26.0255C14.2404 26.0251 14.2427 26.0247 14.245 26.0242C14.2794 26.0304 14.3149 26.0336 14.3511 26.0336H19.8073C20.1299 26.0336 20.3913 25.7796 20.3913 25.4663C20.3913 25.153 20.1299 24.8992 19.8073 24.8992ZM18.6785 28.9133V29.9199C18.6785 30.866 17.8861 31.6358 16.912 31.6358C15.9379 31.6358 15.1455 30.866 15.1455 29.9199V28.9133C15.1455 27.9671 15.9379 27.1974 16.9119 27.1974C17.886 27.1974 18.6785 27.9671 18.6785 28.9133ZM17.5106 28.9133C17.5106 28.5926 17.2421 28.3318 16.912 28.3318H16.9119C16.5819 28.3318 16.3134 28.5926 16.3134 28.9133V29.9199C16.3134 30.2404 16.5819 30.5013 16.9119 30.5013C17.242 30.5013 17.5106 30.2404 17.5106 29.9199V28.9133ZM33.7904 23.6227C33.4457 26.3118 32.0437 28.7096 29.8423 30.3744C27.9897 31.7754 25.7576 32.5162 23.4468 32.5162C23.0117 32.5162 22.574 32.4899 22.1354 32.4368C21.7685 32.3924 21.3986 32.328 21.0357 32.2457C20.7922 32.1904 20.6119 31.9906 20.5874 31.7488C20.5117 31.0003 20.5219 30.2409 20.6179 29.4918C21.3295 23.9405 26.5581 19.986 32.2731 20.6774C32.6404 20.7219 33.0102 20.7863 33.3727 20.8686C33.6161 20.9239 33.7963 21.1236 33.8209 21.3652C33.8968 22.1134 33.8866 22.8729 33.7904 23.6227ZM32.6905 21.8884C32.5035 21.8545 32.3156 21.826 32.1286 21.8033C27.0531 21.1897 22.4089 24.7014 21.7769 29.632C21.7408 29.9132 21.7184 30.196 21.7095 30.479L27.052 25.9325C27.2945 25.7261 27.6635 25.7496 27.876 25.9854C28.0885 26.2209 28.0642 26.5794 27.8216 26.7858L22.4782 31.333C24.869 31.5727 27.2221 30.918 29.1246 29.4792C31.0799 28.0006 32.3252 25.8708 32.6312 23.4824C32.6993 22.9532 32.719 22.4187 32.6905 21.8884Z" fill="currentColor" stroke="currentColor" stroke-width="0.3"/>
    </symbol>

    <symbol id="comfort" viewBox="0 0 42 42" fill="none" xmlns="http://www.w3.org/2000/svg" >
        <path d="M12.009 16.5696C14.1442 14.7453 15.8308 13.3029 20.4079 15.8763C22.6066 17.112 24.38 17.579 25.8552 17.5766C28.4402 17.5766 30.1158 16.1463 31.5641 14.9095C31.8127 14.6943 31.9673 14.3912 31.9951 14.0645C32.0229 13.7378 31.9218 13.4131 31.7132 13.1594C31.6114 13.0348 31.4856 12.9319 31.3431 12.8566C31.2007 12.7813 31.0445 12.7352 30.8838 12.721C30.7231 12.7068 30.5613 12.7249 30.4077 12.7741C30.2542 12.8232 30.1121 12.9026 29.9899 13.0073C27.856 14.8341 26.1681 16.2765 21.591 13.7006C15.5436 10.3037 12.7106 12.724 10.4348 14.6699C10.1864 14.8852 10.0321 15.1884 10.0045 15.5151C9.97685 15.8418 10.0782 16.1663 10.287 16.42C10.3888 16.5443 10.5147 16.647 10.6571 16.7221C10.7995 16.7971 10.9557 16.843 11.1162 16.8569C11.2768 16.8709 11.4385 16.8526 11.5919 16.8033C11.7452 16.7539 11.8871 16.6744 12.009 16.5696V16.5696ZM29.9899 19.2184C27.856 21.0427 26.1681 22.4876 21.591 19.9117C15.5436 16.5124 12.7106 18.9338 10.4348 20.8785C10.1864 21.0939 10.0321 21.3971 10.0045 21.7238C9.97685 22.0505 10.0782 22.375 10.287 22.6286C10.3886 22.7531 10.5143 22.8561 10.6567 22.9313C10.799 23.0066 10.9551 23.0527 11.1157 23.0669C11.2763 23.0811 11.4381 23.063 11.5915 23.0139C11.745 22.9647 11.8869 22.8854 12.009 22.7807C14.1442 20.9552 15.8308 19.5128 20.4079 22.085C22.6066 23.3231 24.38 23.7877 25.8552 23.7877C28.4402 23.7877 30.1158 22.3574 31.5641 21.1181C31.8129 20.9033 31.9676 20.6004 31.9955 20.2738C32.0233 19.9472 31.922 19.6227 31.7132 19.3692C31.6114 19.2447 31.4856 19.1417 31.3431 19.0664C31.2006 18.9911 31.0443 18.9451 30.8836 18.931C30.7229 18.917 30.561 18.9352 30.4075 18.9845C30.2539 19.0339 30.1119 19.1134 29.9899 19.2184V19.2184ZM29.9899 25.4283C27.856 27.255 26.1681 28.6975 21.591 26.124C15.5436 22.7247 12.7106 25.145 10.4348 27.0909C10.1864 27.3062 10.0321 27.6094 10.0045 27.9361C9.97685 28.2628 10.0782 28.5873 10.287 28.841C10.3887 28.9654 10.5145 29.0683 10.657 29.1434C10.7994 29.2186 10.9556 29.2645 11.1162 29.2784C11.2768 29.2924 11.4386 29.2741 11.592 29.2247C11.7453 29.1752 11.8872 29.0956 12.009 28.9906C14.1442 27.1663 15.8308 25.7251 20.4079 28.2973C22.6066 29.533 24.38 30 25.8552 30C28.4402 30 30.1158 28.5673 31.5641 27.3305C31.8127 27.1153 31.9673 26.8122 31.9951 26.4855C32.0229 26.1588 31.9218 25.8341 31.7132 25.5803C31.6113 25.456 31.4854 25.3531 31.343 25.2779C31.2005 25.2028 31.0444 25.1567 30.8838 25.1425C30.7232 25.1284 30.5613 25.1464 30.4078 25.1954C30.2543 25.2445 30.1122 25.3237 29.9899 25.4283V25.4283Z" fill="#01005B"/>

    </symbol>
    
    <symbol viewBox="0 0 24 10" xmlns="http://www.w3.org/2000/svg" id="arrow-right" fill="white"    preserveAspectRatio='none'>
        <path d="M18.1072 10L23 5.00003L18.1072 0L16.6372 1.5022L19.0205 3.93781H0V6.06226H19.0205L16.6372 8.4978L18.1072 10Z" strike="white"/>
    </symbol>
    <symbol viewBox="0 0 11 10" fill="none" xmlns="http://www.w3.org/2000/svg" id="star">
        <path d="M10.9857 3.6786C10.9686 3.62578 10.9371 3.57881 10.8946 3.54301C10.8522 3.50722 10.8006 3.48403 10.7456 3.47609L7.59968 3.01897L6.19242 0.165568C6.16782 0.115857 6.12981 0.0740131 6.08268 0.0447576C6.03556 0.0155021 5.9812 0 5.92574 0C5.87028 0 5.81592 0.0155021 5.76879 0.0447576C5.72167 0.0740131 5.68366 0.115857 5.65906 0.165568L4.2518 3.01682L1.10587 3.47394C1.05103 3.482 0.999527 3.50522 0.957172 3.54098C0.914818 3.57674 0.883293 3.62362 0.866151 3.67633C0.849008 3.72905 0.846929 3.7855 0.860149 3.83934C0.873368 3.89317 0.90136 3.94224 0.94097 3.98102L3.2173 6.20003L2.68017 9.33383C2.67118 9.38824 2.67748 9.44408 2.69838 9.49512C2.71927 9.54616 2.75394 9.59038 2.7985 9.62286C2.84307 9.65534 2.89579 9.6748 2.95077 9.67906C3.00575 9.68332 3.06083 9.67222 3.10987 9.64699L5.92601 8.16926L8.74 9.6486C8.78908 9.67388 8.84422 9.68499 8.89926 9.68072C8.9543 9.67644 9.00707 9.65694 9.05166 9.62438C9.09625 9.59183 9.1309 9.54751 9.15175 9.49639C9.17259 9.44527 9.17881 9.38935 9.16969 9.3349L8.63257 6.20111L10.9094 3.98209C10.9491 3.94362 10.9773 3.89482 10.9908 3.84121C11.0042 3.78759 11.0025 3.73127 10.9857 3.6786Z" fill="#FFB801"/>
    </symbol>
    <symbol viewBox="0 0 42 42" fill="none" xmlns="http://www.w3.org/2000/svg" id="leaf">
        <path d="M31.6772 29.8173C31.2798 29.4699 30.6744 29.5075 30.3243 29.9018C28.7161 31.7091 26.928 31.0519 26.0955 30.5778C27.8126 19.7576 23.9291 17.7438 18.5887 14.9742C16.3418 13.81 13.797 12.4863 11.2237 10.2377C10.973 10.0171 10.6277 9.94669 10.3108 10.0406C9.99388 10.1345 9.74791 10.3879 9.66277 10.7072C8.26735 15.9741 9.09041 21.0955 11.99 25.1231C14.8376 29.0803 19.3455 31.4979 24.6954 31.9532C25.4569 32.4836 26.6348 33 27.9403 33C29.1843 33 30.5419 32.5306 31.7623 31.1599C32.1076 30.7656 32.0745 30.1647 31.6772 29.8173ZM13.551 24.0153C11.2568 20.8326 10.4385 16.8566 11.1859 12.6787C13.4895 14.4766 15.708 15.6267 17.6994 16.6594C22.5715 19.1849 25.4096 20.6589 24.3974 28.8738L21.9235 25.8789L22.4438 22.8088C22.5289 22.2925 22.1789 21.7996 21.6539 21.7151C21.1335 21.6306 20.6369 21.978 20.5517 22.4943L20.3105 23.9261L16.9804 19.8937L15.1167 17.0866C14.8282 16.6453 14.2322 16.5233 13.7875 16.8143C13.3476 17.1007 13.2246 17.6921 13.5132 18.1287L15.4005 20.9781C15.4194 21.0063 15.4384 21.0344 15.462 21.0579L16.427 22.2268L15.7316 22.2362C15.2018 22.2455 14.7809 22.6774 14.7856 23.1985C14.795 23.7195 15.2208 24.1373 15.7458 24.1373C15.7505 24.1373 15.7553 24.1373 15.76 24.1373L17.9832 24.1045L22.6283 29.7328C18.8346 28.9348 15.6654 26.9538 13.551 24.0153Z" fill="#01005B"/>

    </symbol>
    <symbol viewBox="0 0 13 25" fill="none" xmlns="http://www.w3.org/2000/svg" id='arrow-slider'>
        <path d="M2 22.9255L12.465 12.4634L2 2.00006" stroke="#676869" stroke-width="2" stroke-linecap="square" stroke-linejoin="round"/>
    </symbol>
    <symbol viewBox="0 0 70 70" fill="none" xmlns="http://www.w3.org/2000/svg" id="shipment">
        <path d="M9 24H20.5M9 38H20.5M0 31H20.5" stroke="currentColor" stroke-width="2"/>
        <path d="M50.2086 45.6781H36.7195V43.6364H48.1669V19.7072H22.7917V43.6364H27.0555V45.6781H20.75V17.6655H50.2086V45.6781Z" fill="currentColor"/>
        <path d="M69.7501 45.6779H63.2921V43.6362H67.7084V34.3237L58.7741 24.2369H50.2087V43.6362H53.6301V45.6779H48.167V22.1953H59.6932L69.7501 33.5491V45.6779Z" fill="currentColor"/>
        <path d="M58.5228 52.3345C55.1631 52.3345 52.4307 49.6015 52.4307 46.2425C52.4307 42.8833 55.1632 40.1504 58.5228 40.1504C61.8823 40.1504 64.6158 42.8834 64.6158 46.2425C64.6159 49.6015 61.8824 52.3345 58.5228 52.3345ZM58.5228 42.192C56.2897 42.192 54.4723 44.0089 54.4723 46.2425C54.4723 48.4761 56.2897 50.2929 58.5228 50.2929C60.7568 50.2929 62.5742 48.4761 62.5742 46.2425C62.5742 44.0088 60.7568 42.192 58.5228 42.192Z" fill="currentColor"/>
        <path d="M31.9761 52.3345C28.6165 52.3345 25.884 49.6015 25.884 46.2425C25.884 42.8833 28.6166 40.1504 31.9761 40.1504C35.3356 40.1504 38.0681 42.8834 38.0681 46.2425C38.0681 49.6015 35.3357 52.3345 31.9761 52.3345ZM31.9761 42.192C29.743 42.192 27.9256 44.0089 27.9256 46.2425C27.9256 48.4761 29.743 50.2929 31.9761 50.2929C34.2091 50.2929 36.0264 48.4761 36.0264 46.2425C36.0265 44.0088 34.2092 42.192 31.9761 42.192Z" fill="currentColor"/>
    </symbol>
    <symbol viewBox="0 0 42 42" fill="none" xmlns="http://www.w3.org/2000/svg" id="co2">
        <path d="M31.8971 19.0229C32.0646 18.4416 32.1171 17.8414 32.1171 17.2516C32.1171 13.253 28.8641 10 24.8655 10C23.2878 10 21.7878 10.4982 20.5278 11.4407C19.3101 12.3515 18.3918 13.649 17.9419 15.0946C17.927 15.1424 17.8758 15.2525 17.6686 15.2181C17.6503 15.215 17.6311 15.2155 17.6115 15.2142C17.5434 15.2099 17.4696 15.2061 17.3933 15.2061C15.0219 15.2061 12.9063 16.7396 12.0954 19.0334C12.0834 19.0675 12.0464 19.1479 11.9485 19.1289C11.9386 19.127 11.9287 19.1248 11.9187 19.1229C11.5593 19.0508 11.1909 19.0144 10.8234 19.0144C7.74517 19.0144 5.24097 21.5187 5.24097 24.5969C5.24097 27.6751 7.74517 30.1793 10.8233 30.1793H30.293C33.3713 30.1793 35.8755 27.6751 35.8755 24.5969C35.8755 22.1833 34.2956 20.0247 32.0119 19.2858C31.9556 19.2676 31.8378 19.2287 31.8971 19.0229ZM30.293 29.1409H10.8233C8.31781 29.1409 6.27937 27.1026 6.27937 24.5969C6.27937 22.0913 8.31774 20.0528 10.8233 20.0528C11.1307 20.0528 11.4388 20.0842 11.7389 20.146C11.8369 20.1662 11.9355 20.1764 12.0315 20.1764C12.5177 20.1764 12.8967 19.9103 13.0452 19.4646C13.687 17.5386 15.4342 16.2445 17.3932 16.2445C17.4563 16.2445 17.5254 16.2492 17.5985 16.2541C17.678 16.2595 17.7604 16.2651 17.8486 16.2659L17.867 16.266C18.4687 16.266 18.8251 15.989 18.926 15.4427C18.9289 15.4272 18.9311 15.4123 18.9334 15.4029C19.746 12.7923 22.13 11.0384 24.8655 11.0384C28.2915 11.0384 31.0787 13.8257 31.0787 17.2516C31.0787 17.8396 30.9926 18.4344 30.8227 19.0196C30.7401 19.3046 30.7588 19.558 30.8785 19.773C31.0564 20.0925 31.3764 20.1818 31.5302 20.2247L31.5545 20.2315C33.4873 20.7888 34.8372 22.5839 34.8372 24.5969C34.8371 27.1025 32.7986 29.1409 30.293 29.1409Z" fill="currentColor" stroke="currentColor" stroke-width="0.4"/>
        <path d="M18.3497 20.3618C18.0519 20.2657 17.7064 20.2129 17.3769 20.2129C15.8137 20.2129 14.7219 21.2927 14.7219 22.8387C14.7219 24.3515 15.715 25.3679 17.193 25.3679C17.7819 25.3679 18.2097 25.2404 18.4123 25.1643C18.4816 25.1384 18.6653 25.0693 18.6393 24.7836L18.5686 24.4667C18.5371 24.3205 18.4402 24.2333 18.3096 24.2333C18.2526 24.2333 18.2013 24.2505 18.1676 24.2634C17.9996 24.3278 17.7318 24.4134 17.3478 24.4134C16.458 24.4134 15.8602 23.765 15.8602 22.8C15.8602 21.8081 16.4556 21.1672 17.3768 21.1672C17.6679 21.1672 17.924 21.2106 18.1378 21.2961L18.1489 21.3006C18.1827 21.3146 18.2337 21.3358 18.2937 21.3358C18.3646 21.3358 18.4924 21.3054 18.5522 21.1024L18.6478 20.7776L18.6514 20.7621C18.6817 20.5878 18.5632 20.4307 18.3497 20.3618Z" fill="currentColor"/>
        <path d="M21.7372 20.1934C20.2881 20.1934 19.2759 21.2732 19.2759 22.8193C19.2759 24.3197 20.2562 25.3677 21.6598 25.3677C22.8499 25.3677 24.1308 24.546 24.1308 22.7418C24.1308 21.2412 23.1465 20.1934 21.7372 20.1934ZM21.6986 24.4519C20.9544 24.4519 20.4142 23.753 20.4142 22.7901C20.4142 21.9533 20.8173 21.109 21.7179 21.109C22.7184 21.109 22.9829 22.196 22.9829 22.7708C22.9828 23.7449 22.4428 24.4519 21.6986 24.4519Z" fill="currentColor"/>
        <path d="M27.8567 24.535H26.832C26.6502 24.535 26.7401 24.4465 26.7848 24.4027C27.5872 23.6186 28.1816 22.9303 28.1816 22.0815C28.1816 21.3507 27.7071 20.6133 26.6467 20.6133C26.2316 20.6133 25.8316 20.7301 25.49 20.9512C25.2773 21.0889 25.1973 21.2906 25.2845 21.4668L25.3702 21.6567L25.3764 21.6691C25.4274 21.7645 25.5211 21.8214 25.6271 21.8214C25.738 21.8214 25.8301 21.7616 25.8923 21.7212C26.1022 21.5847 26.3156 21.5155 26.5267 21.5155C26.9658 21.5155 27.1793 21.7246 27.1793 22.1528C27.1737 22.7124 26.719 23.2352 25.6338 24.2683C25.5826 24.3123 25.2832 24.5716 25.1498 24.7407C25.0808 24.8281 25.0825 24.9397 25.0839 25.038L25.0843 25.0774C25.0843 25.3136 25.2863 25.4372 25.4858 25.4372H27.8525C27.8676 25.4388 27.8895 25.4405 27.9152 25.4405C28.173 25.4405 28.2884 25.2758 28.2884 25.1125V24.9048C28.2884 24.6646 28.0722 24.5369 27.8567 24.535Z" fill="currentColor"/>
    </symbol>
    <symbol viewBox="0 0 42 42" fill="none" xmlns="http://www.w3.org/2000/svg" id='h2o'>
        <path d="M21.5165 5.30537C21.3219 5.10913 21.0607 4.99713 20.7805 5.00006C20.5042 5.001 20.2398 5.11268 20.0466 5.31017C19.6176 5.74867 9.53906 16.1468 9.53906 24.7561C9.53906 30.9565 14.5836 36.001 20.784 36.001C26.9844 36.001 32.0288 30.9565 32.0288 24.7561C32.0288 16.0068 21.9458 5.73813 21.5165 5.30537ZM20.784 33.9377C15.7211 33.9377 11.6023 29.8189 11.6023 24.7561C11.6023 18.2493 18.4933 10.0819 20.7883 7.54255C23.0869 10.0588 29.9657 18.1434 29.9657 24.7561C29.9656 29.8189 25.8468 33.9377 20.784 33.9377Z" fill="currentColor"/>
        <path d="M17.4502 21.4453C17.2509 21.4453 17.0791 21.5191 16.9536 21.6587C16.8317 21.7939 16.77 21.9868 16.77 22.2319V23.3796H15.1161V22.2319C15.1161 21.9835 15.0524 21.7891 14.9267 21.6543C14.799 21.5175 14.626 21.4453 14.4261 21.4453C14.2215 21.4453 14.048 21.5197 13.9244 21.6606C13.806 21.7956 13.7458 21.9879 13.7458 22.232V25.9556C13.7458 26.1999 13.8066 26.3928 13.9262 26.5286C14.051 26.6705 14.2238 26.7454 14.4261 26.7454C14.624 26.7454 14.7965 26.6726 14.9251 26.5348C15.0518 26.3991 15.1161 26.2042 15.1161 25.9556V24.5725H16.77V25.9556C16.77 26.1999 16.8307 26.3928 16.9503 26.5286C17.0751 26.6705 17.2479 26.7454 17.4502 26.7454C17.6481 26.7454 17.8206 26.6726 17.9492 26.5348C18.0759 26.3991 18.1402 26.2042 18.1402 25.9556V22.232C18.1402 21.9836 18.0765 21.7892 17.9508 21.6544C17.8232 21.5175 17.6501 21.4453 17.4502 21.4453Z" fill="currentColor"/>
        <path d="M21.7489 28.5081C21.6493 28.4304 21.515 28.3909 21.3493 28.3909H20.6121C20.6773 28.3315 20.7613 28.2589 20.8694 28.1706C21.1042 27.9786 21.2673 27.8414 21.368 27.7509C21.4803 27.65 21.59 27.5118 21.6942 27.34C21.8074 27.1532 21.8649 26.9434 21.8649 26.7166C21.8649 26.5702 21.8372 26.4268 21.7824 26.2905C21.7279 26.1545 21.6503 26.0328 21.5518 25.9288C21.4532 25.8245 21.3369 25.7412 21.2039 25.6804C21.0132 25.5956 20.7838 25.5527 20.5223 25.5527C20.3031 25.5527 20.1068 25.5866 19.9389 25.6531C19.7693 25.7205 19.6258 25.8116 19.5122 25.924C19.3993 26.0361 19.3128 26.1637 19.255 26.3032C19.1975 26.4424 19.1684 26.5798 19.1684 26.712C19.1684 26.8907 19.2424 27.0022 19.3045 27.064C19.3934 27.1529 19.5096 27.2 19.6405 27.2C19.829 27.2 19.939 27.1142 19.9982 27.0419C20.0591 26.9676 20.1102 26.87 20.1548 26.7435C20.1946 26.6298 20.2098 26.6002 20.2096 26.6002H20.2095C20.2861 26.4829 20.3784 26.4305 20.5086 26.4305C20.5696 26.4305 20.6236 26.4435 20.6737 26.4702C20.721 26.4954 20.7572 26.5296 20.7844 26.5746C20.8116 26.6195 20.8246 26.6703 20.8246 26.7302C20.8246 26.7906 20.8095 26.8526 20.7785 26.9196C20.7443 26.9934 20.6926 27.0677 20.6246 27.1406C20.5511 27.2194 20.4567 27.2999 20.3475 27.3771C20.2675 27.431 20.1449 27.5344 19.9728 27.693C19.8067 27.8457 19.6187 28.0308 19.4125 28.245C19.3474 28.3141 19.2908 28.4026 19.2397 28.5155C19.1857 28.6347 19.1594 28.734 19.1594 28.8195C19.1594 28.9599 19.2139 29.0878 19.3169 29.1894C19.4207 29.2922 19.5597 29.3442 19.73 29.3442H21.4159C21.5748 29.3442 21.7009 29.2965 21.7905 29.2027C21.8768 29.1127 21.9223 28.9976 21.9223 28.8699C21.9221 28.7215 21.862 28.5965 21.7489 28.5081Z" fill="currentColor"/>
        <path d="M27.2039 22.7065C27.0057 22.3041 26.709 21.989 26.3225 21.7702C25.9414 21.5546 25.4825 21.4453 24.9588 21.4453C24.5731 21.4453 24.2222 21.5072 23.9154 21.6291C23.6042 21.7528 23.3361 21.9344 23.1183 22.1689C22.9016 22.4019 22.7345 22.6869 22.6214 23.0159C22.5102 23.3391 22.4539 23.6978 22.4539 24.0824C22.4539 24.4572 22.5077 24.8118 22.6141 25.1363C22.7226 25.4678 22.8861 25.7563 23.1001 25.9937C23.3157 26.2329 23.5873 26.4205 23.9072 26.5511C24.223 26.6799 24.5833 26.7453 24.9782 26.7453C25.3748 26.7453 25.7337 26.6818 26.0451 26.5562C26.361 26.4288 26.6317 26.2418 26.8497 26.0001C27.0657 25.7605 27.2298 25.4745 27.3373 25.1498C27.4427 24.8314 27.4961 24.4744 27.4961 24.0888C27.4959 23.565 27.3977 23.1 27.2039 22.7065ZM25.9506 24.9384C25.846 25.1585 25.7121 25.3152 25.5412 25.4172C25.3668 25.5213 25.1805 25.5719 24.9715 25.5719C24.81 25.5719 24.6608 25.542 24.5279 25.4832C24.3965 25.425 24.2777 25.3351 24.1749 25.2161C24.0705 25.0956 23.9878 24.9386 23.9289 24.7496C23.8677 24.5536 23.8367 24.329 23.8367 24.0825C23.8367 23.8383 23.8676 23.6169 23.9285 23.4242C23.9877 23.2376 24.0676 23.0844 24.1662 22.9685C24.2639 22.8538 24.377 22.769 24.5119 22.709C24.6471 22.6492 24.7974 22.6188 24.9587 22.6188C25.1898 22.6188 25.3876 22.6723 25.5631 22.7822C25.7363 22.8908 25.867 23.0492 25.9627 23.266C26.0624 23.4923 26.1128 23.7669 26.1128 24.0824C26.1128 24.4237 26.0582 24.7118 25.9506 24.9384Z" fill="currentColor"/>
    </symbol>
    <symbol viewBox="0 0 42 42" fill="none" xmlns="http://www.w3.org/2000/svg" id='energy'>
        <path d="M22.8493 8.75247L20.8138 19.1408L28.1878 19.1649L18.1504 33.2479L20.1859 21.819L12.8124 21.7941L22.8493 8.75247ZM22.8507 7C22.802 7 22.7533 7.00173 22.7055 7.0052C22.387 7.0302 22.1759 7.1336 21.9256 7.29702C21.7847 7.3883 21.6576 7.49831 21.5481 7.62386C21.5152 7.66154 21.4842 7.70072 21.4552 7.74128L11.3461 20.7373C10.9469 21.2688 10.8883 21.9702 11.195 22.5564C11.5012 23.1426 12.1205 23.5142 12.7993 23.519L18.007 23.5558L16.3697 32.9259C16.2141 33.7312 16.6561 34.5338 17.4342 34.8572C17.6603 34.9516 17.9038 35.0002 18.1499 35C18.7169 35 19.1828 34.7424 19.5324 34.2771L29.6541 20.194C30.0533 19.6626 30.1115 18.9603 29.8052 18.3749C29.4989 17.7887 28.8797 17.4172 28.2009 17.4124L22.9932 17.4036L24.6129 9.16471C24.6472 9.02983 24.6645 8.89138 24.6643 8.75244C24.6643 7.80434 23.8871 7.03149 22.9147 7.00082C22.8931 6.99995 22.8718 7 22.8507 7Z" fill="currentColor"/>
    </symbol>
    <symbol viewBox="0 0 33 33" fill="none" xmlns="http://www.w3.org/2000/svg" id='shield-check'>
        <path d="M16.3511 26C16.2928 26 16.2345 25.991 16.1783 25.973C14.29 25.3681 12.6824 24.208 11.4 22.5248C10.3904 21.1996 9.58206 19.5502 8.99747 17.6226C8.01133 14.3712 8 11.4747 8 11.353C8 11.0614 8.22153 10.8173 8.51187 10.7893C8.55559 10.7851 12.9538 10.3335 16.0183 8.10806C16.2167 7.96388 16.4854 7.96405 16.6839 8.10812C19.7475 10.3335 24.1463 10.7851 24.1903 10.7894C24.4805 10.8177 24.7019 11.0616 24.7019 11.353C24.7019 11.4747 24.6906 14.3712 23.7045 17.6226C23.1199 19.5503 22.3115 21.1996 21.302 22.5248C20.0196 24.208 18.412 25.3682 16.5238 25.9731C16.4676 25.991 16.4093 26 16.3511 26ZM9.14884 11.8498C9.1959 12.8003 9.37887 14.9892 10.0891 17.3197C11.3013 21.2966 13.4077 23.8248 16.351 24.8371C19.3012 23.8225 21.41 21.2858 22.6206 17.2939C23.3261 14.9679 23.5071 12.7956 23.5534 11.8499C22.2847 11.6647 18.9983 11.0382 16.3509 9.25708C13.7034 11.0381 10.4176 11.6647 9.14884 11.8498Z" fill="currentColor" stroke="currentColor" stroke-width="0.4"/>
        <path d="M16.0485 19.758C15.9142 19.758 15.7835 19.7102 15.6805 19.6221L13.6326 17.8708C13.3949 17.6675 13.367 17.3101 13.5702 17.0723C13.7734 16.8346 14.1309 16.8066 14.3686 17.01L15.9613 18.372L19.118 14.2313C19.3076 13.9826 19.6629 13.9346 19.9117 14.1243C20.1604 14.3139 20.2083 14.6693 20.0187 14.918L16.4989 19.535C16.4045 19.6588 16.2633 19.7383 16.1084 19.7548C16.0884 19.7569 16.0684 19.758 16.0485 19.758Z" fill="currentColor" stroke="currentColor" stroke-width="0.4"/>
    </symbol>
    <symbol viewBox="0 0 11 11" fill="none" xmlns="http://www.w3.org/2000/svg" id="clock">
        <path d="M3.8501 2.75H4.9501V5.5H7.7001V6.6H3.8501V2.75Z" fill="#1FAD40"/>
        <path fill-rule="evenodd" clip-rule="evenodd" d="M11 5.5C11 8.53754 8.53754 11 5.5 11C2.46243 11 0 8.53754 0 5.5C0 2.46243 2.46243 0 5.5 0C8.53754 0 11 2.46243 11 5.5ZM9.9 5.5C9.9 7.93007 7.93007 9.9 5.5 9.9C3.06995 9.9 1.1 7.93007 1.1 5.5C1.1 3.06995 3.06995 1.1 5.5 1.1C7.93007 1.1 9.9 3.06995 9.9 5.5Z" fill="#1FAD40"/>
    </symbol>
    <symbol>
    </symbol>
    <symbol>
    </symbol>
</svg>
